<svg width="24" height="22" viewBox="0 0 24 22" fill="none" xmlns="http://www.w3.org/2000/svg">
<g id="Group">
<path id="Vector" d="M3.01438 12.7892L3.01445 12.7892L3.022 12.7996C4.23031 14.4682 5.68532 15.9209 7.19634 17.2077L7.21329 17.2222L7.22959 17.2373C7.91961 17.8801 9.05028 18.8493 10.1078 19.6628C10.6373 20.0702 11.1325 20.4262 11.5355 20.6801C11.7302 20.8027 11.8888 20.8922 12.0096 20.9508C12.1442 20.8862 12.3258 20.7741 12.5599 20.598C12.7287 20.4711 12.8963 20.3336 13.0727 20.1887L13.0855 20.1782C13.2476 20.045 13.4262 19.8982 13.5947 19.7742C16.9223 17.2423 20.3382 14.2792 22.0494 11.1251C23.4556 8.12119 23.3553 4.63722 21.3984 2.56299C18.7489 0.200795 14.7835 0.685353 12.7893 3.14288L11.9924 4.12498L11.2206 3.12303C10.6874 2.43088 10.038 1.88743 9.2644 1.48606C6.01799 0.21216 2.74532 1.5299 1.40039 4.36755C0.45694 7.35569 1.25826 10.4287 3.01438 12.7892Z" stroke="#020D37" stroke-width="2"/>
</g>
</svg>
