<svg width="60" height="60" viewBox="0 0 60 60" fill="none" xmlns="http://www.w3.org/2000/svg">
<path d="M22.9678 34.6996C22.9678 36.5665 24.4511 38.357 27.0914 39.6772C29.7316 40.9973 33.3126 41.739 37.0466 41.739C40.7805 41.739 44.3615 40.9973 47.0018 39.6772C49.6421 38.357 51.1254 36.5665 51.1254 34.6996C51.1254 32.8326 49.6421 31.0421 47.0018 29.7219C44.3615 28.4018 40.7805 27.6602 37.0466 27.6602C33.3126 27.6602 29.7316 28.4018 27.0914 29.7219C24.4511 31.0421 22.9678 32.8326 22.9678 34.6996Z" stroke="#090909" stroke-width="4" stroke-linecap="round" stroke-linejoin="round"/>
<path d="M22.9678 34.7002V44.0861C22.9678 47.9718 29.2704 51.1255 37.0466 51.1255C44.8228 51.1255 51.1254 47.9718 51.1254 44.0861V34.7002" stroke="#090909" stroke-width="4" stroke-linecap="round" stroke-linejoin="round"/>
<path d="M8.88867 15.9281C8.88867 16.8525 9.25283 17.7679 9.96036 18.6219C10.6679 19.476 11.7049 20.252 13.0123 20.9057C14.3196 21.5593 15.8716 22.0779 17.5797 22.4316C19.2879 22.7854 21.1186 22.9675 22.9675 22.9675C24.8163 22.9675 26.6471 22.7854 28.3552 22.4316C30.0633 22.0779 31.6154 21.5593 32.9227 20.9057C34.23 20.252 35.2671 19.476 35.9746 18.6219C36.6821 17.7679 37.0463 16.8525 37.0463 15.9281C37.0463 15.0036 36.6821 14.0883 35.9746 13.2342C35.2671 12.3802 34.23 11.6041 32.9227 10.9505C31.6154 10.2968 30.0633 9.77828 28.3552 9.42451C26.6471 9.07075 24.8163 8.88867 22.9675 8.88867C21.1186 8.88867 19.2879 9.07075 17.5797 9.42451C15.8716 9.77828 14.3196 10.2968 13.0123 10.9505C11.7049 11.6041 10.6679 12.3802 9.96036 13.2342C9.25283 14.0883 8.88867 15.0036 8.88867 15.9281Z" stroke="#090909" stroke-width="4" stroke-linecap="round" stroke-linejoin="round"/>
<path d="M8.88867 15.9282V39.3929C8.88867 41.4766 10.7001 43.349 13.5816 44.6396" stroke="#090909" stroke-width="4" stroke-linecap="round" stroke-linejoin="round"/>
<path d="M8.88867 27.6602C8.88867 29.7438 10.7001 31.6163 13.5816 32.9069" stroke="#090909" stroke-width="4" stroke-linecap="round" stroke-linejoin="round"/>
</svg>
