<svg width="131" height="44" viewBox="0 0 131 44" fill="none" xmlns="http://www.w3.org/2000/svg">
<g clip-path="url(#clip0_1_340)">
<path d="M16.1277 0H17.2922C21.3349 0.0888251 25.3118 1.73209 28.1681 4.64111C27.1134 5.72922 26.0368 6.77292 25.0042 7.86102C23.4003 6.39541 21.4668 5.26289 19.3575 4.86318C16.2376 4.19699 12.8759 4.79656 10.2613 6.59527C7.40503 8.4828 5.47154 11.6805 5.05408 15.1003C4.59268 18.4756 5.53745 22.0286 7.71263 24.649C9.79991 27.2027 12.9858 28.8015 16.2815 28.9126C19.3575 29.0902 22.5653 28.1354 24.8064 25.9591C26.5641 24.4269 27.3771 22.0953 27.6407 19.8302C23.9935 19.8302 20.3462 19.8524 16.699 19.8302V15.2557H32.057C32.848 20.1633 31.7055 25.6927 28.0143 29.2013C25.5535 31.6884 22.1479 33.154 18.6764 33.4427C15.3148 33.7758 11.8433 33.1318 8.85514 31.4885C5.27379 29.5566 2.4175 26.2922 1.01133 22.4505C-0.306961 18.9198 -0.328933 14.9226 0.90147 11.3696C2.02201 8.1275 4.17522 5.26289 6.94362 3.26432C9.60217 1.28796 12.832 0.199857 16.1277 0Z" fill="#0082F0"/>
<path d="M104.234 1.15479H108.936V32.8653C107.376 32.8653 105.794 32.8875 104.234 32.8431C104.256 22.2951 104.234 11.725 104.234 1.15479Z" fill="#01A548"/>
<path d="M42.5139 12.1472C45.4142 11.592 48.5561 12.2138 50.951 13.9681C53.1262 15.5225 54.6422 17.9652 55.1036 20.6299C55.6968 23.7166 54.9498 27.0919 52.9724 29.5346C50.8411 32.2659 47.3477 33.7315 43.9421 33.5095C40.8221 33.3318 37.7901 31.7552 35.9445 29.1793C33.8572 26.3369 33.3518 22.4286 34.4943 19.0977C35.6369 15.5225 38.8667 12.7912 42.5139 12.1472ZM43.1731 16.3663C41.9866 16.6772 40.8881 17.3656 40.0971 18.3427C37.9658 20.9186 38.0977 25.1156 40.4486 27.5138C41.7889 28.8906 43.8103 29.5346 45.6778 29.1571C47.4136 28.8462 48.9296 27.6693 49.7645 26.1148C51.2147 23.4723 50.7972 19.8305 48.5781 17.7653C47.1499 16.433 45.0626 15.8778 43.1731 16.3663Z" fill="#F7402E"/>
<path d="M65.8029 12.1469C69.1206 11.5029 72.7459 12.4355 75.2287 14.7894C79.2715 18.4535 79.7109 25.3152 76.2614 29.5344C74.1741 32.1992 70.7905 33.6648 67.4508 33.5093C64.2649 33.4205 61.123 31.8217 59.2335 29.1791C57.1022 26.2701 56.6408 22.2729 57.8493 18.8754C59.0577 15.4112 62.2216 12.7686 65.8029 12.1469ZM66.4621 16.3661C65.2756 16.677 64.177 17.3653 63.3861 18.3202C61.2768 20.8517 61.3647 24.9821 63.6278 27.4026C64.968 28.846 67.0553 29.5566 68.9888 29.1569C70.7026 28.8238 72.2406 27.6691 73.0755 26.1146C74.5036 23.4499 74.0862 19.808 71.8451 17.7429C70.4169 16.4105 68.3297 15.8775 66.4621 16.3661Z" fill="#F7B702"/>
<path d="M85.5571 13.4345C88.0838 11.8357 91.4454 11.3916 94.1699 12.7684C95.0268 13.1459 95.7299 13.7898 96.411 14.4338C96.433 13.8343 96.411 13.2125 96.433 12.5907C97.9051 12.6129 99.3772 12.5907 100.871 12.6129V32.1988C100.849 35.1522 100.102 38.2833 97.993 40.4373C95.6859 42.8134 92.1485 43.5462 88.9627 43.0577C85.5571 42.5469 82.5909 40.0376 81.2726 36.8621C82.5909 36.2181 83.9751 35.7074 85.3374 35.1078C86.1064 36.9287 87.6663 38.4832 89.6218 38.8385C91.5773 39.1938 93.8403 38.7052 95.1147 37.062C96.4769 35.3743 96.4769 33.0649 96.411 30.9997C95.4003 31.999 94.2358 32.8872 92.8296 33.2203C89.7756 34.0863 86.414 33.0204 84.063 30.9331C81.6901 28.8457 80.2839 25.6258 80.4157 22.4281C80.4817 18.8084 82.503 15.3221 85.5571 13.4345ZM90.1052 16.2769C88.7649 16.499 87.5125 17.254 86.6557 18.2977C84.5903 20.7848 84.5903 24.7597 86.6776 27.2024C87.8641 28.6458 89.7756 29.4452 91.6212 29.2454C93.357 29.0677 94.9609 27.9574 95.8178 26.4252C97.2679 23.8271 97.0262 20.2963 95.0707 18.0312C93.8623 16.6322 91.9288 15.9438 90.1052 16.2769Z" fill="#0082F0"/>
<path d="M114.578 14.5672C117.215 12.0801 121.28 11.2363 124.663 12.5465C127.871 13.7678 129.914 16.8545 130.947 20.03C126.179 22.0286 121.434 24.0049 116.666 26.0035C117.325 27.2692 118.336 28.424 119.698 28.8903C121.609 29.5787 123.894 29.3344 125.498 28.0465C126.135 27.5579 126.641 26.9139 127.124 26.2922C128.333 27.1138 129.541 27.9132 130.749 28.7348C129.036 31.333 126.157 33.1539 123.059 33.4426C119.632 33.8645 115.985 32.5321 113.765 29.823C110.118 25.5593 110.47 18.4089 114.578 14.5672ZM116.929 18.6754C116.182 19.7635 115.875 21.0959 115.897 22.4061C119.083 21.0737 122.268 19.7413 125.454 18.3867C124.927 17.1432 123.653 16.3882 122.356 16.1883C120.269 15.8108 118.094 16.9433 116.929 18.6754Z" fill="#F7402E"/>
</g>
<defs>
<clipPath id="clip0_1_340">
<rect width="131" height="44" fill="white"/>
</clipPath>
</defs>
</svg>
