<svg width="54" height="54" viewBox="0 0 54 54" fill="none" xmlns="http://www.w3.org/2000/svg">
<path d="M39.5973 22.1475C39.5967 19.9921 39.0229 17.8757 37.9345 16.0153C36.8462 14.1549 35.2826 12.6175 33.4041 11.5607C31.5256 10.5039 29.3998 9.96584 27.2447 10.0017C25.0897 10.0375 22.9829 10.6459 21.1405 11.7645C19.2982 12.8831 17.7865 14.4716 16.7606 16.3672C15.7347 18.2627 15.2315 20.397 15.3025 22.5512C15.3735 24.7054 16.0163 26.8019 17.1649 28.6258C18.3135 30.4496 19.9265 31.9351 21.8386 32.9298V36.1675C21.8386 36.6633 22.0355 37.1388 22.3861 37.4894C22.7367 37.8399 23.2121 38.0369 23.7079 38.0369H31.1853C31.6811 38.0369 32.1565 37.8399 32.5071 37.4894C32.8577 37.1388 33.0546 36.6633 33.0546 36.1675V32.9298C35.0275 31.9034 36.6808 30.3553 37.8345 28.454C38.9881 26.5528 39.5979 24.3714 39.5973 22.1475Z" stroke="white" stroke-width="4" stroke-linecap="round" stroke-linejoin="round"/>
<path d="M21.8389 44.542H33.0549" stroke="white" stroke-width="4" stroke-linecap="round" stroke-linejoin="round"/>
</svg>
