<svg width="54" height="54" viewBox="0 0 54 54" fill="none" xmlns="http://www.w3.org/2000/svg">
<path d="M14 28.0469C14 26.39 15.3431 25.0469 17 25.0469H37.3332C38.99 25.0469 40.3332 26.39 40.3332 28.0469V40.8563C40.3332 42.5132 38.99 43.8563 37.3332 43.8563H17C15.3431 43.8563 14 42.5132 14 40.8563V28.0469Z" stroke="white" stroke-width="4" stroke-linecap="round" stroke-linejoin="round"/>
<path d="M24.3447 34.4523C24.3447 35.2006 24.642 35.9182 25.1711 36.4473C25.7002 36.9764 26.4179 37.2737 27.1661 37.2737C27.9144 37.2737 28.6321 36.9764 29.1612 36.4473C29.6903 35.9182 29.9876 35.2006 29.9876 34.4523C29.9876 33.704 29.6903 32.9863 29.1612 32.4572C28.6321 31.9281 27.9144 31.6309 27.1661 31.6309C26.4179 31.6309 25.7002 31.9281 25.1711 32.4572C24.642 32.9863 24.3447 33.704 24.3447 34.4523Z" fill="white"/>
<path d="M17.7617 25.0475V19.4047C17.7617 16.9104 18.7526 14.5183 20.5163 12.7546C22.28 10.9909 24.6721 10 27.1664 10C29.6607 10 32.0528 10.9909 33.8166 12.7546C35.5803 14.5183 36.5711 16.9104 36.5711 19.4047V25.0475" stroke="white" stroke-width="4" stroke-linecap="round" stroke-linejoin="round"/>
</svg>
