<svg width="174" height="32" viewBox="0 0 174 32" fill="none" xmlns="http://www.w3.org/2000/svg">
<path d="M0 7.57661C0 3.49127 3.31182 0.179443 7.39716 0.179443H14.7943V7.5766C14.7943 11.6619 11.4825 14.9738 7.39716 14.9738C3.31182 14.9738 0 11.6619 0 7.57661Z" fill="#FF4545"/>
<path d="M0.000244141 24.3362C0.000244141 20.2508 3.31206 16.939 7.3974 16.939H14.7945V24.3362C14.7945 28.4215 11.4827 31.7333 7.39741 31.7333C3.31207 31.7333 0.000244141 28.4215 0.000244141 24.3362Z" fill="#FDB52A"/>
<path d="M16.8467 16.9389C16.8467 25.1096 23.4703 31.7332 31.641 31.7332V7.5766C31.641 3.49126 28.3292 0.179443 24.2438 0.179443C20.1585 0.179443 16.8467 3.49126 16.8467 7.5766V16.9389Z" fill="#2A66FF"/>
<path d="M50.409 24.315C54.435 24.315 56.8457 22.2176 56.8457 19.0595C56.8457 15.9979 54.4832 14.9371 50.9153 14.1416C48.3599 13.563 47.3473 13.1773 47.3473 11.9719C47.3473 10.9835 48.2875 10.188 49.7822 10.188C51.3733 10.188 53.0367 10.8389 54.5314 12.0442L56.3877 9.46477C54.676 8.01832 52.6028 7.17456 49.9027 7.17456C46.2625 7.17456 43.7553 9.27191 43.7553 12.3335C43.7553 15.5398 46.2625 16.5282 49.7581 17.3238C52.2894 17.9024 53.2537 18.264 53.2537 19.4452C53.2537 20.4819 52.3376 21.3015 50.5295 21.3015C48.4322 21.3015 46.6482 20.4819 45.0812 19.1318L43.0562 21.5667C44.9848 23.3507 47.5161 24.315 50.409 24.315ZM65.9425 20.9399C65.7015 21.181 65.2193 21.3497 64.7372 21.3497C64.0862 21.3497 63.58 20.7712 63.58 19.9515V14.4068H66.28V11.5621H63.58V8.13886H60.1808V11.5621H58.4692V14.4068H60.1808V20.506C60.1808 22.748 61.7237 24.315 63.9416 24.315C64.93 24.315 66.0631 23.881 66.7863 23.2301L65.9425 20.9399ZM74.3218 11.2728C72.586 11.2728 70.8744 11.7549 69.1145 12.6469L70.2958 14.9854C71.2842 14.4791 72.3691 14.0934 73.5262 14.0934C75.5754 14.0934 76.4191 15.2505 76.4191 16.5764V16.8416C75.3584 16.4077 74.2253 16.1907 73.2128 16.1907C70.344 16.1907 68.0537 17.8783 68.0537 20.3372C68.0537 22.7239 70.0788 24.315 72.7307 24.315C74.1048 24.315 75.5271 23.7605 76.4191 22.7721V24.0257H79.8183V16.5764C79.8183 13.3219 77.5763 11.2728 74.3218 11.2728ZM73.5262 21.8801C72.3208 21.8801 71.4048 21.2533 71.4048 20.2408C71.4048 19.2283 72.4414 18.4809 73.7191 18.4809C74.6834 18.4809 75.6236 18.6497 76.4191 18.9631V20.0961C76.1539 21.2533 74.8762 21.8801 73.5262 21.8801ZM86.429 13.9005V11.5621H82.9093V24.0257H86.429V18.0711C86.429 15.7327 88.0924 14.238 90.696 14.238V11.2728C88.7916 11.2728 87.2487 12.2853 86.429 13.9005ZM99.6083 20.9399C99.3672 21.181 98.8851 21.3497 98.4029 21.3497C97.752 21.3497 97.2458 20.7712 97.2458 19.9515V14.4068H99.9458V11.5621H97.2458V8.13886H93.8465V11.5621H92.135V14.4068H93.8465V20.506C93.8465 22.748 95.3895 24.315 97.6074 24.315C98.5958 24.315 99.7288 23.881 100.452 23.2301L99.6083 20.9399ZM110.012 11.2728C108.397 11.2728 107.023 11.9719 106.252 13.0809V7.17456H102.732V24.0257H106.252V16.6488C106.252 15.2987 107.385 14.238 108.855 14.238C110.253 14.238 111.242 15.2987 111.242 16.8416V24.0257H114.617V16.0943C114.617 13.2496 112.712 11.2728 110.012 11.2728ZM125.876 11.5621V18.939C125.876 20.289 124.743 21.3497 123.273 21.3497C121.874 21.3497 120.886 20.289 120.886 18.7461V11.5621H117.511V19.4935C117.511 22.3381 119.415 24.315 122.14 24.315C123.731 24.315 125.105 23.6158 125.876 22.5069V24.0257H129.396V11.5621H125.876ZM140.655 11.2728C138.799 11.2728 137.28 12.1166 136.292 13.5389V7.17456H132.772V24.0257H136.292V22.0489C137.28 23.4712 138.799 24.315 140.655 24.315C143.982 24.315 146.369 21.6149 146.369 17.7818C146.369 13.9728 143.982 11.2728 140.655 11.2728ZM139.643 21.3497C137.762 21.3497 136.461 19.8792 136.461 17.7818C136.461 15.7086 137.762 14.238 139.643 14.238C141.571 14.238 142.945 15.7086 142.945 17.7818C142.945 19.8792 141.571 21.3497 139.643 21.3497ZM170.822 7.46385H166.675L162.698 12.888L158.72 7.46385H154.501L160.576 15.7809L154.501 24.0257H158.648L162.625 18.6015L166.603 24.0257H170.822L164.747 15.7086L170.822 7.46385Z" fill="#090909"/>
</svg>
