<svg width="60" height="60" viewBox="0 0 60 60" fill="none" xmlns="http://www.w3.org/2000/svg">
<path d="M9 9H51.2933V39.5451H9V9Z" stroke="#090909" stroke-width="4" stroke-linecap="round" stroke-linejoin="round"/>
<path d="M24.2725 24.272C24.2725 25.8299 24.8913 27.324 25.9929 28.4256C27.0945 29.5272 28.5886 30.1461 30.1465 30.1461C31.7044 30.1461 33.1985 29.5272 34.3001 28.4256C35.4017 27.324 36.0206 25.8299 36.0206 24.272C36.0206 22.7141 35.4017 21.2201 34.3001 20.1185C33.1985 19.0169 31.7044 18.3979 30.1465 18.3979C28.5886 18.3979 27.0945 19.0169 25.9929 20.1185C24.8913 21.2201 24.2725 22.7141 24.2725 24.272Z" stroke="#090909" stroke-width="4" stroke-linecap="round" stroke-linejoin="round"/>
<path d="M13.7002 51.2935H46.595" stroke="#090909" stroke-width="4" stroke-linecap="round" stroke-linejoin="round"/>
</svg>
