<svg width="60" height="60" viewBox="0 0 60 60" fill="none" xmlns="http://www.w3.org/2000/svg">
<path d="M31.033 51.579C30.2455 51.8801 29.3746 51.8801 28.5871 51.579C22.4601 49.2125 17.193 45.0468 13.4786 39.6298C9.7643 34.2128 7.77671 27.7984 7.77734 21.2303V12.6696C7.77734 11.3722 8.29273 10.128 9.21012 9.21061C10.1275 8.29322 11.3718 7.77783 12.6691 7.77783H46.9117C48.2091 7.77783 49.4534 8.29322 50.3708 9.21061C51.2881 10.128 51.8035 11.3722 51.8035 12.6696V21.3085C51.8036 27.8615 49.8192 34.2609 46.1117 39.6642C42.4041 45.0675 37.1472 49.2214 31.033 51.579Z" stroke="#090909" stroke-width="4" stroke-linecap="round" stroke-linejoin="round"/>
<path d="M24.8994 24.8991C24.8994 26.1965 25.4148 27.4408 26.3322 28.3581C27.2496 29.2755 28.4938 29.7909 29.7912 29.7909C31.0886 29.7909 32.3328 29.2755 33.2502 28.3581C34.1676 27.4408 34.683 26.1965 34.683 24.8991C34.683 23.6017 34.1676 22.3575 33.2502 21.4401C32.3328 20.5227 31.0886 20.0073 29.7912 20.0073C28.4938 20.0073 27.2496 20.5227 26.3322 21.4401C25.4148 22.3575 24.8994 23.6017 24.8994 24.8991Z" stroke="#090909" stroke-width="4" stroke-linecap="round" stroke-linejoin="round"/>
<path d="M29.79 29.7905V37.1282" stroke="#090909" stroke-width="4" stroke-linecap="round" stroke-linejoin="round"/>
</svg>
