<svg width="60" height="60" viewBox="0 0 60 60" fill="none" xmlns="http://www.w3.org/2000/svg">
<path d="M14.582 24.6934V21.7414C14.6393 17.7761 16.2689 13.9959 19.1126 11.2318C21.9563 8.46773 25.7813 6.9461 29.7466 7.00146C33.7119 6.9461 37.5369 8.46773 40.3806 11.2318C43.2243 13.9959 44.8539 17.7761 44.9111 21.7414V24.6934" stroke="#090909" stroke-width="4" stroke-linecap="round" stroke-linejoin="round"/>
<path d="M17.1097 42.3858H12.0549C10.7142 42.3858 9.4285 41.8533 8.48053 40.9053C7.53256 39.9573 7 38.6716 7 37.331V29.7487C7 28.4081 7.53256 27.1223 8.48053 26.1744C9.4285 25.2264 10.7142 24.6938 12.0549 24.6938H17.1097C17.78 24.6938 18.4229 24.9601 18.8969 25.4341C19.3708 25.9081 19.6371 26.551 19.6371 27.2213V39.8584C19.6371 40.5287 19.3708 41.1716 18.8969 41.6456C18.4229 42.1195 17.78 42.3858 17.1097 42.3858Z" stroke="#090909" stroke-width="4" stroke-linecap="round" stroke-linejoin="round"/>
<path d="M42.3829 42.3858H47.4377C48.7784 42.3858 50.0641 41.8533 51.0121 40.9053C51.96 39.9573 52.4926 38.6716 52.4926 37.331V29.7487C52.4926 28.4081 51.96 27.1223 51.0121 26.1744C50.0641 25.2264 48.7784 24.6938 47.4377 24.6938H42.3829C41.7126 24.6938 41.0697 24.9601 40.5957 25.4341C40.1218 25.9081 39.8555 26.551 39.8555 27.2213V39.8584C39.8555 40.5287 40.1218 41.1716 40.5957 41.6456C41.0697 42.1195 41.7126 42.3858 42.3829 42.3858Z" stroke="#090909" stroke-width="4" stroke-linecap="round" stroke-linejoin="round"/>
<path d="M44.9106 42.3853V44.7206C44.9349 46.7567 44.15 48.7191 42.7283 50.1768C41.3066 51.6345 39.3644 52.4683 37.3284 52.495H29.7461" stroke="#090909" stroke-width="4" stroke-linecap="round" stroke-linejoin="round"/>
</svg>
